<svg width="1412" height="440" viewBox="0 0 1412 440" fill="none" xmlns="http://www.w3.org/2000/svg">
<path d="M17.387 43.765C18.6437 43.765 19.823 43.5233 20.925 43.04C22.0463 42.5373 23.158 41.8993 24.26 41.126L28.349 46.926C26.9957 48.086 25.3427 49.0527 23.39 49.826C21.4567 50.5993 19.2913 50.986 16.894 50.986C13.588 50.986 10.746 50.3093 8.368 48.956C5.99 47.5833 4.163 45.6887 2.887 43.272C1.611 40.836 0.973 38.0133 0.973 34.804C0.973 31.5947 1.62067 28.743 2.916 26.249C4.23067 23.7357 6.08667 21.7637 8.484 20.333C10.9007 18.9023 13.762 18.187 17.068 18.187C19.4073 18.187 21.4857 18.5157 23.303 19.173C25.1397 19.811 26.8217 20.768 28.349 22.044L24.376 27.554C23.332 26.8193 22.23 26.249 21.07 25.843C19.91 25.437 18.7017 25.234 17.445 25.234C15.3763 25.234 13.704 25.9687 12.428 27.438C11.1713 28.888 10.543 31.3433 10.543 34.804C10.543 37.066 10.8427 38.8543 11.442 40.169C12.0413 41.4643 12.8533 42.3923 13.878 42.953C14.922 43.4943 16.0917 43.765 17.387 43.765ZM49.1773 18.187C52.348 18.187 55.045 18.8637 57.2683 20.217C59.4917 21.5703 61.193 23.4747 62.3723 25.93C63.5517 28.366 64.1413 31.2273 64.1413 34.514C64.1413 39.6567 62.8267 43.6877 60.1973 46.607C57.568 49.5263 53.8947 50.986 49.1773 50.986C44.46 50.986 40.7867 49.5457 38.1573 46.665C35.528 43.7843 34.2133 39.7533 34.2133 34.572C34.2133 31.3047 34.803 28.4433 35.9823 25.988C37.181 23.5327 38.892 21.6187 41.1153 20.246C43.358 18.8733 46.0453 18.187 49.1773 18.187ZM49.1773 24.944C47.302 24.944 45.91 25.7173 45.0013 27.264C44.112 28.7913 43.6673 31.2273 43.6673 34.572C43.6673 37.9747 44.112 40.4397 45.0013 41.967C45.91 43.4943 47.302 44.258 49.1773 44.258C51.0527 44.258 52.435 43.4943 53.3243 41.967C54.233 40.4397 54.6873 37.9553 54.6873 34.514C54.6873 31.1887 54.233 28.7623 53.3243 27.235C52.435 25.7077 51.0527 24.944 49.1773 24.944ZM70.6147 50V19.202H78.6187L79.2567 22.769C80.6294 21.2223 82.0794 20.072 83.6067 19.318C85.134 18.564 86.874 18.187 88.8267 18.187C91.456 18.187 93.5247 18.9893 95.0327 20.594C96.5407 22.1987 97.2947 24.4607 97.2947 27.38V50H88.1307V30.019C88.1307 28.1243 87.918 26.8097 87.4927 26.075C87.0867 25.321 86.3134 24.944 85.1727 24.944C84.206 24.944 83.278 25.2533 82.3887 25.872C81.5187 26.4907 80.6487 27.351 79.7787 28.453V50H70.6147ZM117.746 44.432C119.273 44.432 120.501 44.1903 121.429 43.707C122.376 43.2237 122.85 42.4987 122.85 41.532C122.85 40.8747 122.666 40.3237 122.299 39.879C121.932 39.4343 121.226 39.009 120.182 38.603C119.138 38.197 117.591 37.7137 115.542 37.153C112.719 36.399 110.419 35.3163 108.64 33.905C106.881 32.4937 106.001 30.425 106.001 27.699C106.001 24.9537 107.142 22.682 109.423 20.884C111.724 19.086 115.039 18.187 119.37 18.187C122.115 18.187 124.503 18.5447 126.533 19.26C128.582 19.956 130.351 20.8453 131.84 21.928L128.186 27.322C126.91 26.5293 125.537 25.901 124.068 25.437C122.599 24.9537 121.12 24.712 119.631 24.712C116.692 24.712 115.223 25.5047 115.223 27.09C115.223 27.612 115.407 28.0663 115.774 28.453C116.161 28.8203 116.876 29.207 117.92 29.613C118.964 29.9997 120.491 30.483 122.502 31.063C124.493 31.6237 126.224 32.2713 127.693 33.006C129.182 33.7407 130.332 34.7267 131.144 35.964C131.956 37.182 132.362 38.7963 132.362 40.807C132.362 43.0497 131.695 44.9347 130.361 46.462C129.027 47.97 127.258 49.101 125.054 49.855C122.85 50.609 120.433 50.986 117.804 50.986C114.827 50.986 112.197 50.5607 109.916 49.71C107.635 48.8593 105.692 47.738 104.087 46.346L108.698 41.184C109.897 42.112 111.25 42.8853 112.758 43.504C114.285 44.1227 115.948 44.432 117.746 44.432ZM153.509 18.187C156.68 18.187 159.377 18.8637 161.6 20.217C163.824 21.5703 165.525 23.4747 166.704 25.93C167.884 28.366 168.473 31.2273 168.473 34.514C168.473 39.6567 167.159 43.6877 164.529 46.607C161.9 49.5263 158.227 50.986 153.509 50.986C148.792 50.986 145.119 49.5457 142.489 46.665C139.86 43.7843 138.545 39.7533 138.545 34.572C138.545 31.3047 139.135 28.4433 140.314 25.988C141.513 23.5327 143.224 21.6187 145.447 20.246C147.69 18.8733 150.377 18.187 153.509 18.187ZM153.509 24.944C151.634 24.944 150.242 25.7173 149.333 27.264C148.444 28.7913 147.999 31.2273 147.999 34.572C147.999 37.9747 148.444 40.4397 149.333 41.967C150.242 43.4943 151.634 44.258 153.509 44.258C155.385 44.258 156.767 43.4943 157.656 41.967C158.565 40.4397 159.019 37.9553 159.019 34.514C159.019 31.1887 158.565 28.7623 157.656 27.235C156.767 25.7077 155.385 24.944 153.509 24.944ZM191.013 6.964V40.314C191.013 41.5513 191.361 42.4407 192.057 42.982C192.772 43.504 193.748 43.765 194.986 43.765C195.778 43.765 196.542 43.678 197.277 43.504C198.011 43.3107 198.698 43.0883 199.336 42.837L201.54 48.956C200.496 49.4973 199.239 49.971 197.77 50.377C196.3 50.783 194.589 50.986 192.637 50.986C188.925 50.986 186.199 49.9227 184.459 47.796C182.719 45.65 181.849 42.779 181.849 39.183V13.228H172.772V6.964H191.013ZM217.67 37.269C217.979 39.7823 218.801 41.59 220.135 42.692C221.469 43.7747 223.112 44.316 225.065 44.316C226.476 44.316 227.839 44.084 229.154 43.62C230.469 43.156 231.735 42.5373 232.953 41.764L236.636 46.752C235.186 47.9893 233.427 49.0043 231.358 49.797C229.309 50.5897 226.969 50.986 224.34 50.986C220.821 50.986 217.873 50.29 215.495 48.898C213.117 47.4867 211.329 45.5533 210.13 43.098C208.931 40.6427 208.332 37.82 208.332 34.63C208.332 31.5947 208.912 28.8397 210.072 26.365C211.232 23.871 212.924 21.8893 215.147 20.42C217.39 18.9313 220.125 18.187 223.354 18.187C226.293 18.187 228.835 18.8153 230.981 20.072C233.146 21.3287 234.819 23.1363 235.998 25.495C237.197 27.8537 237.796 30.686 237.796 33.992C237.796 34.514 237.777 35.0747 237.738 35.674C237.719 36.2733 237.68 36.805 237.622 37.269H217.67ZM223.354 24.335C221.711 24.335 220.386 24.9247 219.381 26.104C218.376 27.2833 217.767 29.1683 217.554 31.759H228.864C228.845 29.5163 228.41 27.7183 227.559 26.365C226.708 25.0117 225.307 24.335 223.354 24.335ZM251.374 44.519C251.374 43.3397 251.664 42.2667 252.244 41.3C252.824 40.314 253.607 39.531 254.593 38.951C255.579 38.3517 256.662 38.052 257.841 38.052C259.04 38.052 260.123 38.3517 261.089 38.951C262.075 39.531 262.858 40.314 263.438 41.3C264.018 42.2667 264.308 43.3397 264.308 44.519C264.308 45.679 264.018 46.752 263.438 47.738C262.858 48.724 262.075 49.507 261.089 50.087C260.123 50.6863 259.04 50.986 257.841 50.986C256.662 50.986 255.579 50.6863 254.593 50.087C253.607 49.507 252.824 48.724 252.244 47.738C251.664 46.752 251.374 45.679 251.374 44.519ZM295.345 6.964V40.314C295.345 41.5513 295.693 42.4407 296.389 42.982C297.104 43.504 298.08 43.765 299.318 43.765C300.11 43.765 300.874 43.678 301.609 43.504C302.343 43.3107 303.03 43.0883 303.668 42.837L305.872 48.956C304.828 49.4973 303.571 49.971 302.102 50.377C300.632 50.783 298.921 50.986 296.969 50.986C293.257 50.986 290.531 49.9227 288.791 47.796C287.051 45.65 286.181 42.779 286.181 39.183V13.228H277.104V6.964H295.345ZM327.396 18.187C330.567 18.187 333.264 18.8637 335.487 20.217C337.71 21.5703 339.412 23.4747 340.591 25.93C341.77 28.366 342.36 31.2273 342.36 34.514C342.36 39.6567 341.045 43.6877 338.416 46.607C335.787 49.5263 332.113 50.986 327.396 50.986C322.679 50.986 319.005 49.5457 316.376 46.665C313.747 43.7843 312.432 39.7533 312.432 34.572C312.432 31.3047 313.022 28.4433 314.201 25.988C315.4 23.5327 317.111 21.6187 319.334 20.246C321.577 18.8733 324.264 18.187 327.396 18.187ZM327.396 24.944C325.521 24.944 324.129 25.7173 323.22 27.264C322.331 28.7913 321.886 31.2273 321.886 34.572C321.886 37.9747 322.331 40.4397 323.22 41.967C324.129 43.4943 325.521 44.258 327.396 44.258C329.271 44.258 330.654 43.4943 331.543 41.967C332.452 40.4397 332.906 37.9553 332.906 34.514C332.906 31.1887 332.452 28.7623 331.543 27.235C330.654 25.7077 329.271 24.944 327.396 24.944ZM376.18 14.272L378.326 21C377.244 21.4253 375.977 21.7347 374.527 21.928C373.077 22.1213 371.386 22.218 369.452 22.218C371.386 23.0493 372.855 24.0837 373.86 25.321C374.885 26.539 375.397 28.1437 375.397 30.135C375.397 32.1263 374.866 33.905 373.802 35.471C372.739 37.0177 371.231 38.2357 369.278 39.125C367.326 40.0143 365.015 40.459 362.347 40.459C361.071 40.459 359.882 40.343 358.78 40.111C358.104 40.459 357.765 41.0487 357.765 41.88C357.765 42.3633 357.959 42.7983 358.345 43.185C358.751 43.5717 359.689 43.765 361.158 43.765H366.204C369.781 43.765 372.633 44.606 374.759 46.288C376.886 47.97 377.949 50.0967 377.949 52.668C377.949 55.8193 376.567 58.3037 373.802 60.121C371.038 61.9383 366.929 62.847 361.477 62.847C357.533 62.847 354.479 62.441 352.313 61.629C350.167 60.8363 348.669 59.6957 347.818 58.207C346.987 56.7377 346.571 54.988 346.571 52.958H354.691C354.691 53.8473 354.865 54.5723 355.213 55.133C355.581 55.713 356.267 56.1383 357.272 56.409C358.297 56.6797 359.776 56.815 361.709 56.815C363.662 56.815 365.151 56.6603 366.175 56.351C367.2 56.0417 367.896 55.6163 368.263 55.075C368.65 54.553 368.843 53.9633 368.843 53.306C368.843 52.3973 368.486 51.6627 367.77 51.102C367.055 50.5413 365.924 50.261 364.377 50.261H359.476C356.151 50.261 353.734 49.652 352.226 48.434C350.718 47.1967 349.964 45.7563 349.964 44.113C349.964 42.9723 350.264 41.8897 350.863 40.865C351.482 39.8403 352.342 38.98 353.444 38.284C351.472 37.24 350.061 36.0123 349.21 34.601C348.36 33.1703 347.934 31.4593 347.934 29.468C347.934 27.148 348.524 25.1567 349.703 23.494C350.883 21.812 352.507 20.5167 354.575 19.608C356.663 18.6993 359.041 18.245 361.709 18.245C364.01 18.2837 366.011 18.129 367.712 17.781C369.414 17.4137 370.941 16.9207 372.294 16.302C373.648 15.664 374.943 14.9873 376.18 14.272ZM361.941 24.19C360.491 24.19 359.341 24.654 358.49 25.582C357.64 26.4907 357.214 27.7473 357.214 29.352C357.214 31.0533 357.649 32.3583 358.519 33.267C359.389 34.1757 360.53 34.63 361.941 34.63C365.073 34.63 366.639 32.832 366.639 29.236C366.639 25.872 365.073 24.19 361.941 24.19ZM394.66 29.7C394.66 32.89 394.998 35.7803 395.675 38.371C396.351 40.9423 397.492 43.4943 399.097 46.027C400.701 48.5403 402.896 51.305 405.68 54.321L400.344 59.135C397.289 56.5057 394.64 53.7313 392.398 50.812C390.155 47.8927 388.425 44.7027 387.207 41.242C385.989 37.7813 385.38 33.934 385.38 29.7C385.38 25.466 385.989 21.6187 387.207 18.158C388.425 14.6973 390.155 11.5073 392.398 8.588C394.64 5.66866 397.289 2.89433 400.344 0.264999L405.68 5.079C403.089 7.90166 400.982 10.589 399.358 13.141C397.734 15.6737 396.545 18.274 395.791 20.942C395.037 23.5907 394.66 26.51 394.66 29.7ZM96.5407 117.126C96.5407 118.286 96.6954 119.127 97.0047 119.649C97.3334 120.171 97.8554 120.567 98.5707 120.838L96.6857 126.87C94.8684 126.696 93.3314 126.3 92.0747 125.681C90.8374 125.043 89.861 124.086 89.1457 122.81C87.9664 124.221 86.4584 125.275 84.6217 125.971C82.785 126.648 80.9097 126.986 78.9957 126.986C75.825 126.986 73.2924 126.087 71.3977 124.289C69.5224 122.472 68.5847 120.142 68.5847 117.3C68.5847 113.955 69.8897 111.374 72.4997 109.557C75.129 107.74 78.8217 106.831 83.5777 106.831H87.7247V105.671C87.7247 102.52 85.6947 100.944 81.6347 100.944C80.6487 100.944 79.3824 101.089 77.8357 101.379C76.289 101.65 74.7424 102.046 73.1957 102.568L71.0787 96.478C73.07 95.724 75.1387 95.1537 77.2847 94.767C79.45 94.3803 81.3834 94.187 83.0847 94.187C87.6667 94.187 91.05 95.1247 93.2347 97C95.4387 98.856 96.5407 101.543 96.5407 105.062V117.126ZM82.1567 120.432C83.1427 120.432 84.177 120.142 85.2597 119.562C86.3424 118.963 87.164 118.122 87.7247 117.039V112.051H85.4627C82.9107 112.051 81.0354 112.447 79.8367 113.24C78.638 114.013 78.0387 115.154 78.0387 116.662C78.0387 117.841 78.3964 118.769 79.1117 119.446C79.8464 120.103 80.8614 120.432 82.1567 120.432ZM131.55 126H121.429L118.79 105.294L116.035 126H106.088L101.535 95.202H109.916L111.917 120.287L115.165 99.088H122.879L125.779 120.287L127.838 95.202H135.929L131.55 126ZM166.095 117.126C166.095 118.286 166.25 119.127 166.559 119.649C166.888 120.171 167.41 120.567 168.125 120.838L166.24 126.87C164.423 126.696 162.886 126.3 161.629 125.681C160.392 125.043 159.416 124.086 158.7 122.81C157.521 124.221 156.013 125.275 154.176 125.971C152.34 126.648 150.464 126.986 148.55 126.986C145.38 126.986 142.847 126.087 140.952 124.289C139.077 122.472 138.139 120.142 138.139 117.3C138.139 113.955 139.444 111.374 142.054 109.557C144.684 107.74 148.376 106.831 153.132 106.831H157.279V105.671C157.279 102.52 155.249 100.944 151.189 100.944C150.203 100.944 148.937 101.089 147.39 101.379C145.844 101.65 144.297 102.046 142.75 102.568L140.633 96.478C142.625 95.724 144.693 95.1537 146.839 94.767C149.005 94.3803 150.938 94.187 152.639 94.187C157.221 94.187 160.605 95.1247 162.789 97C164.993 98.856 166.095 101.543 166.095 105.062V117.126ZM151.711 120.432C152.697 120.432 153.732 120.142 154.814 119.562C155.897 118.963 156.719 118.122 157.279 117.039V112.051H155.017C152.465 112.051 150.59 112.447 149.391 113.24C148.193 114.013 147.593 115.154 147.593 116.662C147.593 117.841 147.951 118.769 148.666 119.446C149.401 120.103 150.416 120.432 151.711 120.432ZM188.229 79.078C189.814 79.078 191.109 79.571 192.115 80.557C193.12 81.543 193.623 82.7707 193.623 84.24C193.623 85.7093 193.12 86.9467 192.115 87.952C191.109 88.938 189.814 89.431 188.229 89.431C186.624 89.431 185.309 88.938 184.285 87.952C183.279 86.9467 182.777 85.7093 182.777 84.24C182.777 82.7707 183.279 81.543 184.285 80.557C185.309 79.571 186.624 79.078 188.229 79.078ZM193.768 95.202V119.736H201.598V126H175.875V119.736H184.604V101.466H176.165V95.202H193.768ZM237.448 124.202C236.249 124.975 234.799 125.633 233.098 126.174C231.397 126.715 229.483 126.986 227.356 126.986C223.335 126.986 220.348 125.961 218.395 123.912C216.442 121.843 215.466 119.04 215.466 115.502V101.524H208.999V95.202H215.466V88.532L224.63 87.43V95.202H234.548L233.649 101.524H224.63V115.502C224.63 117.029 224.978 118.122 225.674 118.779C226.37 119.436 227.482 119.765 229.009 119.765C230.092 119.765 231.078 119.639 231.967 119.388C232.876 119.117 233.688 118.779 234.403 118.373L237.448 124.202ZM288.443 98.363C289.409 97.087 290.569 96.072 291.923 95.318C293.295 94.564 294.765 94.187 296.331 94.187C300.294 94.187 303.175 95.6563 304.973 98.595C306.79 101.534 307.699 105.507 307.699 110.514C307.699 113.685 307.225 116.517 306.278 119.011C305.35 121.486 303.967 123.438 302.131 124.869C300.294 126.28 298.042 126.986 295.374 126.986C292.145 126.986 289.603 125.729 287.747 123.216L287.399 126H279.279V82.964L288.443 82.007V98.363ZM292.967 120.316C294.591 120.316 295.876 119.572 296.824 118.083C297.771 116.575 298.245 114.091 298.245 110.63C298.245 108.078 298.042 106.106 297.636 104.714C297.249 103.303 296.688 102.326 295.954 101.785C295.238 101.224 294.397 100.944 293.431 100.944C292.406 100.944 291.488 101.263 290.676 101.901C289.864 102.539 289.119 103.409 288.443 104.511V117.503C289.023 118.412 289.67 119.108 290.386 119.591C291.101 120.074 291.961 120.316 292.967 120.316ZM339.982 117.126C339.982 118.286 340.137 119.127 340.446 119.649C340.775 120.171 341.297 120.567 342.012 120.838L340.127 126.87C338.31 126.696 336.773 126.3 335.516 125.681C334.279 125.043 333.302 124.086 332.587 122.81C331.408 124.221 329.9 125.275 328.063 125.971C326.226 126.648 324.351 126.986 322.437 126.986C319.266 126.986 316.734 126.087 314.839 124.289C312.964 122.472 312.026 120.142 312.026 117.3C312.026 113.955 313.331 111.374 315.941 109.557C318.57 107.74 322.263 106.831 327.019 106.831H331.166V105.671C331.166 102.52 329.136 100.944 325.076 100.944C324.09 100.944 322.824 101.089 321.277 101.379C319.73 101.65 318.184 102.046 316.637 102.568L314.52 96.478C316.511 95.724 318.58 95.1537 320.726 94.767C322.891 94.3803 324.825 94.187 326.526 94.187C331.108 94.187 334.491 95.1247 336.676 97C338.88 98.856 339.982 101.543 339.982 105.062V117.126ZM325.598 120.432C326.584 120.432 327.618 120.142 328.701 119.562C329.784 118.963 330.605 118.122 331.166 117.039V112.051H328.904C326.352 112.051 324.477 112.447 323.278 113.24C322.079 114.013 321.48 115.154 321.48 116.662C321.48 117.841 321.838 118.769 322.553 119.446C323.288 120.103 324.303 120.432 325.598 120.432ZM364.899 82.964V116.314C364.899 117.551 365.247 118.441 365.943 118.982C366.659 119.504 367.635 119.765 368.872 119.765C369.665 119.765 370.429 119.678 371.163 119.504C371.898 119.311 372.584 119.088 373.222 118.837L375.426 124.956C374.382 125.497 373.126 125.971 371.656 126.377C370.187 126.783 368.476 126.986 366.523 126.986C362.811 126.986 360.085 125.923 358.345 123.796C356.605 121.65 355.735 118.779 355.735 115.183V89.228H346.658V82.964H364.899ZM409.537 117.126C409.537 118.286 409.691 119.127 410.001 119.649C410.329 120.171 410.851 120.567 411.567 120.838L409.682 126.87C407.864 126.696 406.327 126.3 405.071 125.681C403.833 125.043 402.857 124.086 402.142 122.81C400.962 124.221 399.454 125.275 397.618 125.971C395.781 126.648 393.906 126.986 391.992 126.986C388.821 126.986 386.288 126.087 384.394 124.289C382.518 122.472 381.581 120.142 381.581 117.3C381.581 113.955 382.886 111.374 385.496 109.557C388.125 107.74 391.818 106.831 396.574 106.831H400.721V105.671C400.721 102.52 398.691 100.944 394.631 100.944C393.645 100.944 392.378 101.089 390.832 101.379C389.285 101.65 387.738 102.046 386.192 102.568L384.075 96.478C386.066 95.724 388.135 95.1537 390.281 94.767C392.446 94.3803 394.379 94.187 396.081 94.187C400.663 94.187 404.046 95.1247 406.231 97C408.435 98.856 409.537 101.543 409.537 105.062V117.126ZM395.153 120.432C396.139 120.432 397.173 120.142 398.256 119.562C399.338 118.963 400.16 118.122 400.721 117.039V112.051H398.459C395.907 112.051 394.031 112.447 392.833 113.24C391.634 114.013 391.035 115.154 391.035 116.662C391.035 117.841 391.392 118.769 392.108 119.446C392.842 120.103 393.857 120.432 395.153 120.432ZM418.388 126V95.202H426.392L427.03 98.769C428.403 97.2223 429.853 96.072 431.38 95.318C432.907 94.564 434.647 94.187 436.6 94.187C439.229 94.187 441.298 94.9893 442.806 96.594C444.314 98.1987 445.068 100.461 445.068 103.38V126H435.904V106.019C435.904 104.124 435.691 102.81 435.266 102.075C434.86 101.321 434.087 100.944 432.946 100.944C431.979 100.944 431.051 101.253 430.162 101.872C429.292 102.491 428.422 103.351 427.552 104.453V126H418.388ZM469.492 119.765C470.749 119.765 471.928 119.523 473.03 119.04C474.152 118.537 475.263 117.899 476.365 117.126L480.454 122.926C479.101 124.086 477.448 125.053 475.495 125.826C473.562 126.599 471.397 126.986 468.999 126.986C465.693 126.986 462.851 126.309 460.473 124.956C458.095 123.583 456.268 121.689 454.992 119.272C453.716 116.836 453.078 114.013 453.078 110.804C453.078 107.595 453.726 104.743 455.021 102.249C456.336 99.7357 458.192 97.7637 460.589 96.333C463.006 94.9023 465.867 94.187 469.173 94.187C471.513 94.187 473.591 94.5157 475.408 95.173C477.245 95.811 478.927 96.768 480.454 98.044L476.481 103.554C475.437 102.819 474.335 102.249 473.175 101.843C472.015 101.437 470.807 101.234 469.55 101.234C467.482 101.234 465.809 101.969 464.533 103.438C463.277 104.888 462.648 107.343 462.648 110.804C462.648 113.066 462.948 114.854 463.547 116.169C464.147 117.464 464.959 118.392 465.983 118.953C467.027 119.494 468.197 119.765 469.492 119.765ZM495.889 113.269C496.198 115.782 497.02 117.59 498.354 118.692C499.688 119.775 501.331 120.316 503.284 120.316C504.695 120.316 506.058 120.084 507.373 119.62C508.687 119.156 509.954 118.537 511.172 117.764L514.855 122.752C513.405 123.989 511.645 125.004 509.577 125.797C507.527 126.59 505.188 126.986 502.559 126.986C499.04 126.986 496.092 126.29 493.714 124.898C491.336 123.487 489.547 121.553 488.349 119.098C487.15 116.643 486.551 113.82 486.551 110.63C486.551 107.595 487.131 104.84 488.291 102.365C489.451 99.871 491.142 97.8893 493.366 96.42C495.608 94.9313 498.344 94.187 501.573 94.187C504.511 94.187 507.054 94.8153 509.2 96.072C511.365 97.3287 513.037 99.1363 514.217 101.495C515.415 103.854 516.015 106.686 516.015 109.992C516.015 110.514 515.995 111.075 515.957 111.674C515.937 112.273 515.899 112.805 515.841 113.269H495.889ZM501.573 100.335C499.929 100.335 498.605 100.925 497.6 102.104C496.594 103.283 495.985 105.168 495.773 107.759H507.083C507.063 105.516 506.628 103.718 505.778 102.365C504.927 101.012 503.525 100.335 501.573 100.335ZM533.769 105.7C533.769 108.89 534.107 111.78 534.784 114.371C535.461 116.942 536.601 119.494 538.206 122.027C539.811 124.54 542.005 127.305 544.789 130.321L539.453 135.135C536.398 132.506 533.75 129.731 531.507 126.812C529.264 123.893 527.534 120.703 526.316 117.242C525.098 113.781 524.489 109.934 524.489 105.7C524.489 101.466 525.098 97.6187 526.316 94.158C527.534 90.6973 529.264 87.5073 531.507 84.588C533.75 81.6687 536.398 78.8943 539.453 76.265L544.789 81.079C542.198 83.9017 540.091 86.589 538.467 89.141C536.843 91.6737 535.654 94.274 534.9 96.942C534.146 99.5907 533.769 102.51 533.769 105.7ZM150.232 175.175L149.13 158.964H157.83L156.728 175.175H150.232ZM186.663 160.791C189.563 160.791 192.028 161.265 194.058 162.212C196.107 163.14 197.663 164.387 198.727 165.953C199.809 167.5 200.351 169.211 200.351 171.086C200.351 173.638 199.597 175.707 198.089 177.292C196.6 178.858 194.618 179.999 192.144 180.714C194.908 181.081 197.18 182.029 198.959 183.556C200.737 185.064 201.627 187.442 201.627 190.69C201.627 192.952 200.998 195.011 199.742 196.867C198.504 198.723 196.726 200.212 194.406 201.333C192.086 202.435 189.311 202.986 186.083 202.986C183.086 202.986 180.399 202.464 178.021 201.42C175.643 200.357 173.613 198.868 171.931 196.954L177.093 192.14C178.253 193.474 179.538 194.45 180.95 195.069C182.38 195.668 183.888 195.968 185.474 195.968C187.465 195.968 189.089 195.465 190.346 194.46C191.602 193.435 192.231 191.966 192.231 190.052C192.231 187.925 191.631 186.398 190.433 185.47C189.253 184.523 187.581 184.049 185.416 184.049H181.762L182.806 177.727H185.416C187.194 177.727 188.644 177.292 189.766 176.422C190.906 175.552 191.477 174.237 191.477 172.478C191.477 170.97 190.935 169.781 189.853 168.911C188.77 168.041 187.368 167.606 185.648 167.606C184.043 167.606 182.583 167.915 181.269 168.534C179.973 169.153 178.755 170.003 177.615 171.086L172.917 166.214C174.753 164.435 176.812 163.092 179.094 162.183C181.375 161.255 183.898 160.791 186.663 160.791ZM239.101 174.885C239.101 177.998 238.434 180.569 237.1 182.599C235.766 184.629 233.9 186.147 231.503 187.152C229.106 188.138 226.322 188.631 223.151 188.631H218.801V202H209.289V161.806H221.933C227.385 161.806 231.609 162.889 234.606 165.054C237.603 167.219 239.101 170.496 239.101 174.885ZM229.299 174.914C229.299 170.699 226.882 168.592 222.049 168.592H218.801V181.729H222.542C224.669 181.729 226.322 181.188 227.501 180.105C228.7 179.003 229.299 177.273 229.299 174.914ZM251.635 202H241.717L252.273 185.818L242.703 171.202H252.969L257.899 181.062L262.655 171.202H272.399L263.351 185.47L273.965 202H263.583L257.493 190.487L251.635 202ZM287.225 189.269C287.534 191.782 288.356 193.59 289.69 194.692C291.024 195.775 292.667 196.316 294.62 196.316C296.031 196.316 297.394 196.084 298.709 195.62C300.023 195.156 301.29 194.537 302.508 193.764L306.191 198.752C304.741 199.989 302.981 201.004 300.913 201.797C298.863 202.59 296.524 202.986 293.895 202.986C290.376 202.986 287.428 202.29 285.05 200.898C282.672 199.487 280.883 197.553 279.685 195.098C278.486 192.643 277.887 189.82 277.887 186.63C277.887 183.595 278.467 180.84 279.627 178.365C280.787 175.871 282.478 173.889 284.702 172.42C286.944 170.931 289.68 170.187 292.909 170.187C295.847 170.187 298.39 170.815 300.536 172.072C302.701 173.329 304.373 175.136 305.553 177.495C306.751 179.854 307.351 182.686 307.351 185.992C307.351 186.514 307.331 187.075 307.293 187.674C307.273 188.273 307.235 188.805 307.177 189.269H287.225ZM292.909 176.335C291.265 176.335 289.941 176.925 288.936 178.104C287.93 179.283 287.321 181.168 287.109 183.759H298.419C298.399 181.516 297.964 179.718 297.114 178.365C296.263 177.012 294.861 176.335 292.909 176.335ZM331.572 158.007L340.736 158.964V202H332.616L332.152 198.607C331.301 199.806 330.17 200.84 328.759 201.71C327.348 202.561 325.637 202.986 323.626 202.986C321.074 202.986 318.957 202.3 317.275 200.927C315.612 199.554 314.365 197.64 313.534 195.185C312.722 192.71 312.316 189.82 312.316 186.514C312.316 183.343 312.809 180.53 313.795 178.075C314.781 175.62 316.192 173.696 318.029 172.304C319.866 170.893 322.05 170.187 324.583 170.187C327.348 170.187 329.677 171.134 331.572 173.029V158.007ZM327.048 176.886C325.463 176.886 324.187 177.64 323.22 179.148C322.253 180.637 321.77 183.111 321.77 186.572C321.77 189.105 321.973 191.077 322.379 192.488C322.785 193.88 323.346 194.856 324.061 195.417C324.776 195.978 325.598 196.258 326.526 196.258C327.551 196.258 328.479 195.939 329.31 195.301C330.161 194.663 330.915 193.793 331.572 192.691V179.409C330.934 178.616 330.257 177.998 329.542 177.553C328.827 177.108 327.995 176.886 327.048 176.886ZM378.094 181.7C378.094 185.779 377.553 189.143 376.47 191.792C375.407 194.441 373.957 196.509 372.12 197.998C370.284 199.467 368.196 200.502 365.856 201.101C363.536 201.7 361.129 202 358.635 202H347.789V161.806H357.939C360.511 161.806 362.995 162.077 365.392 162.618C367.809 163.14 369.965 164.116 371.859 165.547C373.773 166.958 375.291 168.969 376.412 171.579C377.534 174.17 378.094 177.543 378.094 181.7ZM368.234 181.7C368.234 178.085 367.838 175.349 367.045 173.493C366.272 171.637 365.209 170.38 363.855 169.723C362.521 169.046 361.013 168.708 359.331 168.708H357.301V195.127H359.331C361.091 195.127 362.637 194.75 363.971 193.996C365.305 193.223 366.349 191.86 367.103 189.907C367.857 187.954 368.234 185.219 368.234 181.7ZM403.215 158.007C405.457 158.007 407.439 158.191 409.16 158.558C410.88 158.906 412.417 159.37 413.771 159.95L411.248 165.924C410.184 165.518 409.092 165.228 407.971 165.054C406.849 164.861 405.738 164.764 404.636 164.764C402.818 164.764 401.513 165.093 400.721 165.75C399.947 166.407 399.561 167.5 399.561 169.027V173.145H409.595L408.58 179.496H399.561V202H390.455V179.496H383.988V173.145H390.455V168.679C390.455 166.649 390.938 164.832 391.905 163.227C392.871 161.622 394.302 160.356 396.197 159.428C398.091 158.481 400.431 158.007 403.215 158.007ZM446.112 200.202C444.913 200.975 443.463 201.633 441.762 202.174C440.061 202.715 438.147 202.986 436.02 202.986C431.999 202.986 429.012 201.961 427.059 199.912C425.106 197.843 424.13 195.04 424.13 191.502V177.524H417.663V171.202H424.13V164.532L433.294 163.43V171.202H443.212L442.313 177.524H433.294V191.502C433.294 193.029 433.642 194.122 434.338 194.779C435.034 195.436 436.146 195.765 437.673 195.765C438.756 195.765 439.742 195.639 440.631 195.388C441.54 195.117 442.352 194.779 443.067 194.373L446.112 200.202ZM484.079 161.806L479.381 202H469.492L466.563 173.261L463.344 202H453.281L448.931 161.806H457.834L459.197 193.88L462.532 166.446H470.71L473.813 193.88L475.814 161.806H484.079ZM517.001 190.226C517.001 192.546 516.556 194.47 515.667 195.997C514.777 197.524 513.559 198.723 512.013 199.593C510.466 200.463 508.697 201.082 506.706 201.449C504.734 201.816 502.655 202 500.471 202H487.131V161.806H499.862C502.626 161.806 505.169 162.115 507.489 162.734C509.828 163.353 511.703 164.416 513.115 165.924C514.545 167.413 515.261 169.462 515.261 172.072C515.261 174.469 514.526 176.383 513.057 177.814C511.587 179.245 509.867 180.211 507.895 180.714C509.325 180.946 510.737 181.4 512.129 182.077C513.54 182.734 514.7 183.72 515.609 185.035C516.537 186.35 517.001 188.08 517.001 190.226ZM505.691 173.029C505.691 171.444 505.188 170.303 504.183 169.607C503.197 168.892 501.66 168.534 499.572 168.534H496.643V177.843H499.862C501.911 177.843 503.39 177.466 504.299 176.712C505.227 175.958 505.691 174.73 505.691 173.029ZM507.199 189.849C507.199 187.722 506.59 186.253 505.372 185.441C504.173 184.629 502.568 184.223 500.558 184.223H496.643V195.069H500.152C501.389 195.069 502.539 194.943 503.603 194.692C504.685 194.421 505.555 193.909 506.213 193.155C506.87 192.401 507.199 191.299 507.199 189.849ZM519.762 161.806H529.999L536.06 174.711L542.266 161.806H552.3L541.628 180.25L553.286 202H543.049L535.944 186.659L528.955 202H518.863L530.289 180.656L519.762 161.806ZM566.662 171.202V192.285C566.662 193.774 566.932 194.798 567.474 195.359C568.034 195.92 568.808 196.2 569.794 196.2C570.741 196.2 571.688 195.9 572.636 195.301C573.583 194.702 574.376 193.89 575.014 192.865V171.202H584.178V202H576.174L575.768 198.404C574.724 199.912 573.351 201.053 571.65 201.826C569.948 202.599 568.17 202.986 566.314 202.986C563.336 202.986 561.123 202.126 559.673 200.405C558.223 198.665 557.498 196.335 557.498 193.416V171.202H566.662ZM609.675 155.078C611.26 155.078 612.556 155.571 613.561 156.557C614.566 157.543 615.069 158.771 615.069 160.24C615.069 161.709 614.566 162.947 613.561 163.952C612.556 164.938 611.26 165.431 609.675 165.431C608.07 165.431 606.756 164.938 605.731 163.952C604.726 162.947 604.223 161.709 604.223 160.24C604.223 158.771 604.726 157.543 605.731 156.557C606.756 155.571 608.07 155.078 609.675 155.078ZM615.62 171.202V193.068C615.62 197.515 614.789 201.169 613.126 204.03C611.483 206.911 609.027 209.192 605.76 210.874C602.512 212.575 598.491 213.9 593.696 214.847L592.246 207.858C595.359 207.143 597.969 206.253 600.076 205.19C602.183 204.127 603.769 202.686 604.832 200.869C605.915 199.032 606.456 196.625 606.456 193.648V177.466H595.378V171.202H615.62ZM657.966 161.806L653.268 202H643.379L640.45 173.261L637.231 202H627.168L622.818 161.806H631.721L633.084 193.88L636.419 166.446H644.597L647.7 193.88L649.701 161.806H657.966ZM689.554 200.202C688.355 200.975 686.905 201.633 685.204 202.174C683.502 202.715 681.588 202.986 679.462 202.986C675.44 202.986 672.453 201.961 670.501 199.912C668.548 197.843 667.572 195.04 667.572 191.502V177.524H661.105V171.202H667.572V164.532L676.736 163.43V171.202H686.654L685.755 177.524H676.736V191.502C676.736 193.029 677.084 194.122 677.78 194.779C678.476 195.436 679.587 195.765 681.115 195.765C682.197 195.765 683.183 195.639 684.073 195.388C684.981 195.117 685.793 194.779 686.509 194.373L689.554 200.202ZM696.897 202V195.852H700.957V177.292H696.897V171.202H707.946L709.628 178.133C710.73 175.484 712.132 173.512 713.833 172.217C715.554 170.922 717.651 170.274 720.126 170.274C721.17 170.274 722.098 170.361 722.91 170.535C723.722 170.69 724.486 170.912 725.201 171.202L723.49 184.078H717.748V178.394C716.008 178.703 714.481 179.651 713.166 181.236C711.851 182.802 710.836 184.735 710.121 187.036V195.852H716.211V202H696.897ZM742.636 202.928L733.936 200.231L748.929 168.708H731.268V161.806H758.209V168.012L742.636 202.928ZM784.2 169.085V202H774.688V169.085H763.407V161.806H795.945L794.959 169.085H784.2ZM810.103 174.363C811.07 173.087 812.23 172.072 813.583 171.318C814.956 170.564 816.425 170.187 817.991 170.187C821.954 170.187 824.835 171.656 826.633 174.595C828.45 177.534 829.359 181.507 829.359 186.514C829.359 189.685 828.885 192.517 827.938 195.011C827.01 197.486 825.628 199.438 823.791 200.869C821.954 202.28 819.702 202.986 817.034 202.986C813.805 202.986 811.263 201.729 809.407 199.216L809.059 202H800.939V158.964L810.103 158.007V174.363ZM814.627 196.316C816.251 196.316 817.537 195.572 818.484 194.083C819.431 192.575 819.905 190.091 819.905 186.63C819.905 184.078 819.702 182.106 819.296 180.714C818.909 179.303 818.349 178.326 817.614 177.785C816.899 177.224 816.058 176.944 815.091 176.944C814.066 176.944 813.148 177.263 812.336 177.901C811.524 178.539 810.78 179.409 810.103 180.511V193.503C810.683 194.412 811.331 195.108 812.046 195.591C812.761 196.074 813.622 196.316 814.627 196.316ZM866.63 161.806L861.932 202H852.043L849.114 173.261L845.895 202H835.832L831.482 161.806H840.385L841.748 193.88L845.083 166.446H853.261L856.364 193.88L858.365 161.806H866.63ZM899.755 181.874C899.755 185.837 899.136 189.395 897.899 192.546C896.681 195.697 894.477 198.085 891.287 199.709C893.394 200.057 895.192 200.579 896.681 201.275C898.189 201.952 899.465 202.928 900.509 204.204C901.572 205.499 902.471 207.23 903.206 209.395L895.434 212.034C894.583 210.023 893.665 208.332 892.679 206.959C891.693 205.586 890.455 204.552 888.967 203.856C887.497 203.16 885.593 202.812 883.254 202.812C878.227 202.812 874.476 200.956 872.002 197.244C869.546 193.513 868.319 188.389 868.319 181.874C868.319 177.621 868.889 173.918 870.03 170.767C871.19 167.616 872.93 165.17 875.25 163.43C877.589 161.671 880.508 160.791 884.008 160.791C889.266 160.791 893.201 162.676 895.811 166.446C898.44 170.216 899.755 175.359 899.755 181.874ZM889.837 181.874C889.837 176.963 889.44 173.387 888.648 171.144C887.855 168.901 886.308 167.78 884.008 167.78C881.746 167.78 880.199 168.911 879.368 171.173C878.556 173.416 878.15 176.983 878.15 181.874C878.15 186.785 878.565 190.371 879.397 192.633C880.247 194.895 881.784 196.026 884.008 196.026C886.328 196.026 887.874 194.895 888.648 192.633C889.44 190.352 889.837 186.765 889.837 181.874ZM934.155 190.255C934.155 192.749 933.498 194.953 932.183 196.867C930.888 198.781 929.022 200.279 926.586 201.362C924.15 202.445 921.221 202.986 917.799 202.986C914.01 202.986 910.829 202.435 908.258 201.333C905.706 200.212 903.589 198.829 901.907 197.186L906.721 191.85C908.21 193.145 909.853 194.151 911.651 194.866C913.449 195.562 915.421 195.91 917.567 195.91C919.558 195.91 921.173 195.485 922.41 194.634C923.647 193.764 924.266 192.546 924.266 190.98C924.266 189.511 923.744 188.36 922.7 187.529C921.675 186.698 919.761 185.857 916.958 185.006C912.26 183.575 908.915 181.893 906.924 179.96C904.952 178.007 903.966 175.504 903.966 172.449C903.966 169.994 904.643 167.896 905.996 166.156C907.369 164.416 909.205 163.092 911.506 162.183C913.807 161.255 916.339 160.791 919.104 160.791C922.217 160.791 924.962 161.245 927.34 162.154C929.718 163.043 931.777 164.319 933.517 165.982L929.022 171.144C927.669 170.003 926.209 169.162 924.643 168.621C923.077 168.06 921.482 167.78 919.858 167.78C918.041 167.78 916.581 168.118 915.479 168.795C914.377 169.452 913.826 170.429 913.826 171.724C913.826 172.575 914.068 173.29 914.551 173.87C915.034 174.45 915.875 175.001 917.074 175.523C918.273 176.026 919.935 176.615 922.062 177.292C924.595 178.065 926.76 178.993 928.558 180.076C930.375 181.139 931.758 182.483 932.705 184.107C933.672 185.731 934.155 187.78 934.155 190.255ZM953.33 155.078C954.916 155.078 956.211 155.571 957.216 156.557C958.222 157.543 958.724 158.771 958.724 160.24C958.724 161.709 958.222 162.947 957.216 163.952C956.211 164.938 954.916 165.431 953.33 165.431C951.726 165.431 950.411 164.938 949.386 163.952C948.381 162.947 947.878 161.709 947.878 160.24C947.878 158.771 948.381 157.543 949.386 156.557C950.411 155.571 951.726 155.078 953.33 155.078ZM958.869 171.202V195.736H966.699V202H940.976V195.736H949.705V177.466H941.266V171.202H958.869ZM992.922 186.92V202H983.41V186.978L970.302 161.806H980.713L988.34 179.119L996.025 161.806H1006.03L992.922 186.92ZM1027.64 169.085V202H1018.13V169.085H1006.85V161.806H1039.39L1038.4 169.085H1027.64ZM1056.73 196.432C1058.26 196.432 1059.49 196.19 1060.42 195.707C1061.36 195.224 1061.84 194.499 1061.84 193.532C1061.84 192.875 1061.65 192.324 1061.29 191.879C1060.92 191.434 1060.21 191.009 1059.17 190.603C1058.13 190.197 1056.58 189.714 1054.53 189.153C1051.71 188.399 1049.41 187.316 1047.63 185.905C1045.87 184.494 1044.99 182.425 1044.99 179.699C1044.99 176.954 1046.13 174.682 1048.41 172.884C1050.71 171.086 1054.03 170.187 1058.36 170.187C1061.1 170.187 1063.49 170.545 1065.52 171.26C1067.57 171.956 1069.34 172.845 1070.83 173.928L1067.17 179.322C1065.9 178.529 1064.53 177.901 1063.06 177.437C1061.59 176.954 1060.11 176.712 1058.62 176.712C1055.68 176.712 1054.21 177.505 1054.21 179.09C1054.21 179.612 1054.39 180.066 1054.76 180.453C1055.15 180.82 1055.86 181.207 1056.91 181.613C1057.95 182 1059.48 182.483 1061.49 183.063C1063.48 183.624 1065.21 184.271 1066.68 185.006C1068.17 185.741 1069.32 186.727 1070.13 187.964C1070.94 189.182 1071.35 190.796 1071.35 192.807C1071.35 195.05 1070.68 196.935 1069.35 198.462C1068.02 199.97 1066.25 201.101 1064.04 201.855C1061.84 202.609 1059.42 202.986 1056.79 202.986C1053.81 202.986 1051.19 202.561 1048.9 201.71C1046.62 200.859 1044.68 199.738 1043.08 198.346L1047.69 193.184C1048.88 194.112 1050.24 194.885 1051.75 195.504C1053.27 196.123 1054.94 196.432 1056.73 196.432ZM1088.55 194.431H1107.69L1106.71 202H1077.36V194.895L1096.44 169.143H1079.45V161.806H1107.26V168.969L1088.55 194.431ZM1140.44 161.806V187.529C1140.44 192.227 1139.03 195.958 1136.21 198.723C1133.4 201.488 1129.43 202.87 1124.29 202.87C1121.7 202.87 1119.45 202.541 1117.56 201.884C1115.68 201.207 1113.88 200.279 1112.14 199.1L1115.76 193.242C1117.13 194.189 1118.42 194.856 1119.62 195.243C1120.82 195.61 1122.18 195.794 1123.71 195.794C1125.78 195.794 1127.5 195.137 1128.87 193.822C1130.26 192.488 1130.96 190.429 1130.96 187.645V168.766H1118.6V161.806H1140.44ZM1162.05 170.187C1165.22 170.187 1167.92 170.864 1170.14 172.217C1172.37 173.57 1174.07 175.475 1175.25 177.93C1176.43 180.366 1177.02 183.227 1177.02 186.514C1177.02 191.657 1175.7 195.688 1173.07 198.607C1170.44 201.526 1166.77 202.986 1162.05 202.986C1157.34 202.986 1153.66 201.546 1151.03 198.665C1148.4 195.784 1147.09 191.753 1147.09 186.572C1147.09 183.305 1147.68 180.443 1148.86 177.988C1150.06 175.533 1151.77 173.619 1153.99 172.246C1156.23 170.873 1158.92 170.187 1162.05 170.187ZM1162.05 176.944C1160.18 176.944 1158.79 177.717 1157.88 179.264C1156.99 180.791 1156.54 183.227 1156.54 186.572C1156.54 189.975 1156.99 192.44 1157.88 193.967C1158.79 195.494 1160.18 196.258 1162.05 196.258C1163.93 196.258 1165.31 195.494 1166.2 193.967C1167.11 192.44 1167.56 189.955 1167.56 186.514C1167.56 183.189 1167.11 180.762 1166.2 179.235C1165.31 177.708 1163.93 176.944 1162.05 176.944ZM1210.95 161.806L1213.21 202H1204.92L1204.43 184.803C1204.37 182.676 1204.35 180.83 1204.37 179.264C1204.41 177.698 1204.48 176.2 1204.57 174.769C1204.67 173.319 1204.79 171.695 1204.92 169.897L1200.4 195.156H1193.2L1188.33 169.897C1188.49 171.579 1188.61 173.164 1188.71 174.653C1188.81 176.122 1188.86 177.669 1188.88 179.293C1188.92 180.917 1188.92 182.802 1188.88 184.948L1188.59 202H1180.44L1182.71 161.806H1192.48L1196.95 187.79L1201.18 161.806H1210.95ZM1247.53 181.7C1247.53 185.779 1246.99 189.143 1245.9 191.792C1244.84 194.441 1243.39 196.509 1241.55 197.998C1239.72 199.467 1237.63 200.502 1235.29 201.101C1232.97 201.7 1230.56 202 1228.07 202H1217.22V161.806H1227.37C1229.94 161.806 1232.43 162.077 1234.83 162.618C1237.24 163.14 1239.4 164.116 1241.29 165.547C1243.21 166.958 1244.72 168.969 1245.85 171.579C1246.97 174.17 1247.53 177.543 1247.53 181.7ZM1237.67 181.7C1237.67 178.085 1237.27 175.349 1236.48 173.493C1235.71 171.637 1234.64 170.38 1233.29 169.723C1231.96 169.046 1230.45 168.708 1228.77 168.708H1226.74V195.127H1228.77C1230.52 195.127 1232.07 194.75 1233.41 193.996C1234.74 193.223 1235.78 191.86 1236.54 189.907C1237.29 187.954 1237.67 185.219 1237.67 181.7ZM1279.75 171.434C1279.75 173.309 1279.25 174.924 1278.25 176.277C1277.24 177.63 1275.66 178.916 1273.52 180.134C1276.23 181.487 1278.2 183.092 1279.43 184.948C1280.69 186.785 1281.32 188.834 1281.32 191.096C1281.32 193.165 1280.75 195.108 1279.61 196.925C1278.49 198.723 1276.81 200.183 1274.56 201.304C1272.34 202.425 1269.56 202.986 1266.21 202.986C1262.94 202.986 1260.21 202.445 1258 201.362C1255.82 200.279 1254.18 198.858 1253.07 197.099C1251.99 195.32 1251.45 193.397 1251.45 191.328C1251.45 189.027 1252.12 187.026 1253.45 185.325C1254.78 183.624 1256.58 182.28 1258.84 181.294C1256.8 179.979 1255.31 178.645 1254.38 177.292C1253.47 175.919 1253.02 174.121 1253.02 171.898C1253.02 169.617 1253.61 167.645 1254.78 165.982C1255.96 164.319 1257.56 163.043 1259.57 162.154C1261.6 161.245 1263.89 160.791 1266.44 160.791C1269.05 160.791 1271.35 161.226 1273.34 162.096C1275.36 162.947 1276.92 164.174 1278.04 165.779C1279.18 167.364 1279.75 169.249 1279.75 171.434ZM1261.74 171.898C1261.74 173.309 1262.22 174.479 1263.17 175.407C1264.11 176.316 1265.59 177.147 1267.6 177.901C1268.92 176.934 1269.82 175.987 1270.3 175.059C1270.78 174.112 1271.02 173.077 1271.02 171.956C1271.02 170.525 1270.64 169.346 1269.86 168.418C1269.11 167.49 1267.97 167.026 1266.44 167.026C1264.95 167.026 1263.79 167.442 1262.96 168.273C1262.15 169.085 1261.74 170.293 1261.74 171.898ZM1272.16 191.038C1272.16 189.704 1271.88 188.621 1271.34 187.79C1270.82 186.959 1270 186.243 1268.88 185.644C1267.76 185.025 1266.29 184.397 1264.47 183.759C1263.29 184.513 1262.35 185.47 1261.66 186.63C1260.96 187.79 1260.61 189.172 1260.61 190.777C1260.61 192.44 1261.1 193.803 1262.06 194.866C1263.05 195.91 1264.51 196.432 1266.44 196.432C1268.43 196.432 1269.88 195.9 1270.79 194.837C1271.7 193.754 1272.16 192.488 1272.16 191.038ZM1296.7 202H1287.18V161.806H1296.7V202ZM1296.99 180.54L1307.98 161.806H1317.95L1306.58 179.844L1319.05 202H1308.03L1296.99 180.54ZM1348.41 161.806L1347.39 168.36H1332.69V177.031C1333.68 176.567 1334.69 176.238 1335.74 176.045C1336.78 175.852 1337.75 175.755 1338.64 175.755C1340.7 175.755 1342.59 176.277 1344.29 177.321C1346.01 178.365 1347.37 179.863 1348.38 181.816C1349.4 183.769 1349.92 186.098 1349.92 188.805C1349.92 191.512 1349.25 193.938 1347.92 196.084C1346.6 198.23 1344.76 199.922 1342.41 201.159C1340.05 202.377 1337.29 202.986 1334.14 202.986C1331.22 202.986 1328.64 202.445 1326.4 201.362C1324.16 200.26 1322.29 198.8 1320.8 196.983L1326.08 192.169C1327.05 193.406 1328.16 194.354 1329.41 195.011C1330.69 195.649 1332.02 195.968 1333.42 195.968C1335.54 195.968 1337.24 195.32 1338.52 194.025C1339.82 192.73 1340.46 191.038 1340.46 188.95C1340.46 186.475 1339.96 184.716 1338.96 183.672C1337.97 182.609 1336.66 182.077 1335.04 182.077C1334.31 182.077 1333.52 182.174 1332.69 182.367C1331.86 182.56 1331 182.908 1330.11 183.411H1323.93V161.806H1348.41ZM1367.44 175.175L1366.34 158.964H1375.04L1373.94 175.175H1367.44ZM1405.49 190.052C1407.31 190.052 1408.82 190.661 1410.02 191.879C1411.22 193.078 1411.82 194.566 1411.82 196.345C1411.82 197.486 1411.6 198.626 1411.18 199.767C1410.77 200.908 1410.15 202.425 1409.32 204.32L1405.12 213.803H1399.03L1401.98 201.478C1401.1 200.917 1400.41 200.183 1399.93 199.274C1399.46 198.365 1399.23 197.37 1399.23 196.287C1399.23 194.528 1399.83 193.049 1401.03 191.85C1402.23 190.651 1403.72 190.052 1405.49 190.052ZM148.144 237.487C148.144 236.018 148.666 234.78 149.71 233.775C150.774 232.75 152.079 232.238 153.625 232.238C155.191 232.238 156.487 232.75 157.511 233.775C158.536 234.78 159.048 236.018 159.048 237.487C159.048 238.318 158.913 239.188 158.642 240.097C158.391 241.006 157.917 242.146 157.221 243.519L153.074 252.132H147.912L150.406 241.866C149.71 241.363 149.159 240.754 148.753 240.039C148.347 239.304 148.144 238.454 148.144 237.487ZM204.005 266.226C204.005 268.546 203.56 270.47 202.671 271.997C201.781 273.524 200.563 274.723 199.017 275.593C197.47 276.463 195.701 277.082 193.71 277.449C191.738 277.816 189.659 278 187.475 278H174.135V237.806H186.866C189.63 237.806 192.173 238.115 194.493 238.734C196.832 239.353 198.707 240.416 200.119 241.924C201.549 243.413 202.265 245.462 202.265 248.072C202.265 250.469 201.53 252.383 200.061 253.814C198.591 255.245 196.871 256.211 194.899 256.714C196.329 256.946 197.741 257.4 199.133 258.077C200.544 258.734 201.704 259.72 202.613 261.035C203.541 262.35 204.005 264.08 204.005 266.226ZM192.695 249.029C192.695 247.444 192.192 246.303 191.187 245.607C190.201 244.892 188.664 244.534 186.576 244.534H183.647V253.843H186.866C188.915 253.843 190.394 253.466 191.303 252.712C192.231 251.958 192.695 250.73 192.695 249.029ZM194.203 265.849C194.203 263.722 193.594 262.253 192.376 261.441C191.177 260.629 189.572 260.223 187.562 260.223H183.647V271.069H187.156C188.393 271.069 189.543 270.943 190.607 270.692C191.689 270.421 192.559 269.909 193.217 269.155C193.874 268.401 194.203 267.299 194.203 265.849ZM227.762 245.085V278H218.25V245.085H206.969V237.806H239.507L238.521 245.085H227.762ZM261.205 236.791C264.086 236.791 266.532 237.178 268.542 237.951C270.572 238.705 272.428 239.778 274.11 241.17L269.441 246.796C268.339 245.887 267.121 245.172 265.787 244.65C264.453 244.109 263.003 243.838 261.437 243.838C259.755 243.838 258.218 244.321 256.826 245.288C255.434 246.235 254.323 247.743 253.491 249.812C252.66 251.861 252.244 254.529 252.244 257.816C252.244 262.649 253.114 266.168 254.854 268.372C256.614 270.557 258.866 271.649 261.611 271.649C263.622 271.649 265.294 271.272 266.628 270.518C267.962 269.764 269.19 268.942 270.311 268.053L274.632 273.563C273.124 275.052 271.268 276.328 269.064 277.391C266.86 278.454 264.202 278.986 261.089 278.986C257.455 278.986 254.226 278.184 251.403 276.579C248.6 274.955 246.396 272.577 244.791 269.445C243.206 266.294 242.413 262.417 242.413 257.816C242.413 253.331 243.235 249.522 244.878 246.39C246.541 243.258 248.793 240.88 251.635 239.256C254.477 237.613 257.667 236.791 261.205 236.791ZM289.342 251.175L288.24 234.964H296.94L295.838 251.175H289.342ZM86.2457 333.7C86.2457 330.51 85.8687 327.591 85.1147 324.942C84.3607 322.274 83.1717 319.674 81.5477 317.141C79.943 314.589 77.8357 311.902 75.2257 309.079L80.5617 304.265C83.6164 306.894 86.265 309.669 88.5077 312.588C90.7504 315.507 92.4807 318.697 93.6987 322.158C94.9167 325.619 95.5257 329.466 95.5257 333.7C95.5257 337.934 94.9167 341.781 93.6987 345.242C92.4807 348.703 90.7504 351.893 88.5077 354.812C86.265 357.731 83.6164 360.506 80.5617 363.135L75.2257 358.321C78.0097 355.305 80.204 352.54 81.8087 350.027C83.4134 347.494 84.554 344.942 85.2307 342.371C85.9074 339.78 86.2457 336.89 86.2457 333.7ZM16.691 409.7C16.691 406.51 16.314 403.591 15.56 400.942C14.806 398.274 13.617 395.674 11.993 393.141C10.3883 390.589 8.281 387.902 5.671 385.079L11.007 380.265C14.0617 382.894 16.7103 385.669 18.953 388.588C21.1957 391.507 22.926 394.697 24.144 398.158C25.362 401.619 25.971 405.466 25.971 409.7C25.971 413.934 25.362 417.781 24.144 421.242C22.926 424.703 21.1957 427.893 18.953 430.812C16.7103 433.731 14.0617 436.506 11.007 439.135L5.671 434.321C8.455 431.305 10.6493 428.54 12.254 426.027C13.8587 423.494 14.9993 420.942 15.676 418.371C16.3527 415.78 16.691 412.89 16.691 409.7Z" fill="url(#paint0_linear)"/>
<defs>
<linearGradient id="paint0_linear" x1="-115.753" y1="270.624" x2="1643.91" y2="248.759" gradientUnits="userSpaceOnUse">
<stop stop-color="#C45C7B"/>
<stop offset="0.0001" stop-color="#7A9863"/>
<stop offset="0.502541" stop-color="#85B3DC"/>
<stop offset="1" stop-color="#5675DF"/>
</linearGradient>
</defs>
</svg>
